PathFileType	4	(X/Y/Z)	 control3min.trc
DataRate	CameraRate	NumFrames	NumMarkers	Units	OrigDataRate	OrigDataStartFrame	OrigNumFrames
200	200	8	43	m	200	376	1000
Frame#	Time	C7			LSH			RSH			MAN			RASI			LASI			HIPR			HIPL			RPSI			LPSI			COX			RTHI1			RTHI2			RTHI3			RTHI4			RLKN			RMKN			RSHA1			RSHA2			RSHA3			RSHA4			RLMAL			RMMAL			RHEEL			RMET5			RMET1			RTOE			LTHI1			LTHI2			LTHI3			LTHI4			LLKN			LMKN			LSHA1			LSHA2			LSHA3			LSHA4			LLMAL			LMMAL			LHEEL			LMET5			LMET1			LTOE			
		X1	Y1	Z1	X2	Y2	Z2	X3	Y3	Z3	X4	Y4	Z4	X5	Y5	Z5	X6	Y6	Z6	X7	Y7	Z7	X8	Y8	Z8	X9	Y9	Z9	X10	Y10	Z10	X11	Y11	Z11	X12	Y12	Z12	X13	Y13	Z13	X14	Y14	Z14	X15	Y15	Z15	X16	Y16	Z16	X17	Y17	Z17	X18	Y18	Z18	X19	Y19	Z19	X20	Y20	Z20	X21	Y21	Z21	X22	Y22	Z22	X23	Y23	Z23	X24	Y24	Z24	X25	Y25	Z25	X26	Y26	Z26	X27	Y27	Z27	X28	Y28	Z28	X29	Y29	Z29	X30	Y30	Z30	X31	Y31	Z31	X32	Y32	Z32	X33	Y33	Z33	X34	Y34	Z34	X35	Y35	Z35	X36	Y36	Z36	X37	Y37	Z37	X38	Y38	Z38	X39	Y39	Z39	X40	Y40	Z40	X41	Y41	Z41	X42	Y42	Z42	X43	Y43	Z43	
376	1.8800	-0.262451	1.524163	-0.528041	-0.224206	1.538615	-0.701451	-0.212842	1.517825	-0.351859	-0.137972	1.476713	-0.527107	-0.124483	1.043281	-0.428863	-0.109995	1.045233	-0.642561	-0.173913	1.100215	-0.399756	-0.178063	1.099913	-0.676744	-0.269848	1.084272	-0.488187	-0.262789	1.084694	-0.591623	-0.269115	1.079919	-0.537381	-0.214842	0.842450	-0.358996	-0.205865	0.783625	-0.353446	-0.141708	0.790587	-0.363198	-0.143811	0.851706	-0.371323	-0.200776	0.524335	-0.374859	-0.196074	0.515051	-0.476173	-0.297952	0.329518	-0.376597	-0.310382	0.290071	-0.386606	-0.250801	0.277494	-0.386266	-0.241760	0.316332	-0.380169	-0.314571	0.163883	-0.396265	-0.277371	0.178175	-0.468098	-0.353000	0.170839	-0.451900	-0.235210	0.070606	-0.365136	-0.186326	0.071546	-0.427168	-0.168312	0.064323	-0.417149	-0.218484	0.842188	-0.725081	-0.204405	0.782814	-0.734826	-0.140070	0.791959	-0.733284	-0.145395	0.851776	-0.723589	-0.169975	0.536562	-0.730049	-0.180170	0.529492	-0.626804	-0.261733	0.319242	-0.760241	-0.270655	0.280005	-0.755876	-0.211344	0.272584	-0.740466	-0.209337	0.316320	-0.747059	-0.262542	0.173989	-0.758227	-0.255210	0.182838	-0.680388	-0.322084	0.164162	-0.716792	-0.182823	0.075801	-0.760284	-0.152077	0.072263	-0.686827	-0.129907	0.061331	-0.689731	
377	1.8850	-0.262714	1.523928	-0.528186	-0.224491	1.538119	-0.701734	-0.213218	1.517486	-0.351848	-0.138116	1.476714	-0.527175	-0.124895	1.043291	-0.428864	-0.110324	1.045149	-0.642594	-0.174564	1.099950	-0.399761	-0.178485	1.099534	-0.676899	-0.270291	1.084031	-0.488386	-0.263168	1.084440	-0.591800	-0.269521	1.079674	-0.537538	-0.214656	0.842345	-0.359090	-0.205522	0.783528	-0.353578	-0.141425	0.790638	-0.363642	-0.143703	0.851762	-0.371748	-0.200318	0.524245	-0.374848	-0.195658	0.515002	-0.476133	-0.298781	0.329996	-0.376947	-0.311343	0.290628	-0.386878	-0.251861	0.277682	-0.386600	-0.242609	0.316464	-0.380498	-0.316061	0.164354	-0.396684	-0.279005	0.178617	-0.468634	-0.354676	0.171074	-0.452187	-0.236237	0.071646	-0.365467	-0.187621	0.072636	-0.427660	-0.169513	0.065666	-0.417709	-0.218373	0.841927	-0.725120	-0.204149	0.782563	-0.734756	-0.139862	0.791840	-0.733002	-0.145200	0.851695	-0.723487	-0.169511	0.536406	-0.729867	-0.179719	0.529448	-0.626674	-0.262616	0.319580	-0.759957	-0.271771	0.280388	-0.755581	-0.212507	0.272637	-0.740166	-0.210241	0.316350	-0.746777	-0.264055	0.174276	-0.757878	-0.256904	0.183138	-0.679980	-0.323837	0.164125	-0.716649	-0.183837	0.076974	-0.760097	-0.153321	0.073280	-0.686619	-0.131057	0.062524	-0.689494	
378	1.8900	-0.262943	1.523481	-0.528337	-0.224729	1.537392	-0.702023	-0.213544	1.516911	-0.351836	-0.138240	1.476437	-0.527253	-0.125352	1.043081	-0.428871	-0.110700	1.044841	-0.642635	-0.175237	1.099465	-0.399781	-0.178936	1.098913	-0.677062	-0.270786	1.083517	-0.488591	-0.263603	1.083914	-0.591986	-0.269983	1.079154	-0.537714	-0.214433	0.842000	-0.359149	-0.205125	0.783203	-0.353662	-0.141084	0.790472	-0.364042	-0.143563	0.851599	-0.372142	-0.199789	0.523906	-0.374792	-0.195175	0.514707	-0.476049	-0.299584	0.330223	-0.377252	-0.312417	0.290910	-0.387219	-0.252957	0.277640	-0.386924	-0.243454	0.316355	-0.380794	-0.317647	0.164636	-0.397100	-0.280747	0.178892	-0.469149	-0.356458	0.171265	-0.452393	-0.237445	0.072329	-0.365995	-0.189154	0.073396	-0.428452	-0.170953	0.066603	-0.418641	-0.218266	0.841414	-0.725180	-0.203871	0.782067	-0.734714	-0.139632	0.791501	-0.732730	-0.145023	0.851390	-0.723397	-0.168957	0.536003	-0.729717	-0.179161	0.529147	-0.626588	-0.263461	0.319708	-0.759749	-0.272875	0.280566	-0.755356	-0.213667	0.272450	-0.739906	-0.211119	0.316143	-0.746540	-0.265605	0.174361	-0.757606	-0.258681	0.183246	-0.679645	-0.325658	0.163991	-0.716654	-0.185021	0.077778	-0.759782	-0.154851	0.073994	-0.686235	-0.132498	0.063386	-0.689025	
379	1.8950	-0.263137	1.522829	-0.528494	-0.224922	1.536436	-0.702317	-0.213821	1.516101	-0.351826	-0.138362	1.475900	-0.527344	-0.125849	1.042649	-0.428890	-0.111124	1.044313	-0.642684	-0.175920	1.098772	-0.399816	-0.179411	1.098071	-0.677226	-0.271326	1.082738	-0.488792	-0.264088	1.083127	-0.592173	-0.270498	1.078361	-0.537898	-0.214176	0.841420	-0.359180	-0.204676	0.782651	-0.353705	-0.140693	0.790083	-0.364383	-0.143394	0.851208	-0.372496	-0.199185	0.523311	-0.374698	-0.194650	0.514169	-0.475932	-0.300332	0.330182	-0.377498	-0.313497	0.290965	-0.387530	-0.254047	0.277365	-0.387223	-0.244275	0.316000	-0.381058	-0.319311	0.164728	-0.397510	-0.282581	0.178994	-0.469641	-0.358324	0.171421	-0.452535	-0.238870	0.072608	-0.366713	-0.190949	0.073717	-0.429504	-0.172671	0.067062	-0.419818	-0.218157	0.840646	-0.725258	-0.203568	0.781329	-0.734695	-0.139381	0.790945	-0.732471	-0.144867	0.850863	-0.723318	-0.168317	0.535360	-0.729597	-0.178531	0.528603	-0.626538	-0.264256	0.319620	-0.759620	-0.273945	0.280538	-0.755206	-0.214821	0.272034	-0.739681	-0.211957	0.315694	-0.746342	-0.267185	0.174246	-0.757402	-0.260530	0.183167	-0.679373	-0.327528	0.163767	-0.716787	-0.186406	0.078212	-0.759387	-0.156644	0.074366	-0.685701	-0.134216	0.063889	-0.688353	
380	1.9000	-0.263295	1.521973	-0.528657	-0.225071	1.535255	-0.702617	-0.214049	1.515059	-0.351822	-0.138476	1.475100	-0.527451	-0.126386	1.041996	-0.428923	-0.111594	1.043565	-0.642741	-0.176595	1.097884	-0.399881	-0.179929	1.097014	-0.677395	-0.271903	1.081698	-0.488984	-0.264618	1.082081	-0.592351	-0.271055	1.077294	-0.538070	-0.213890	0.840595	-0.359193	-0.204183	0.781862	-0.353716	-0.140262	0.789472	-0.364663	-0.143198	0.850589	-0.372805	-0.198501	0.522459	-0.374572	-0.194088	0.513386	-0.475796	-0.301012	0.329881	-0.377677	-0.314545	0.290803	-0.387787	-0.255109	0.276842	-0.387506	-0.245050	0.315401	-0.381297	-0.321018	0.164633	-0.397898	-0.284484	0.178920	-0.470110	-0.360251	0.171544	-0.452632	-0.240531	0.072439	-0.367569	-0.192999	0.073637	-0.430687	-0.174681	0.067091	-0.421159	-0.218042	0.839632	-0.725351	-0.203243	0.780350	-0.734693	-0.139107	0.790167	-0.732229	-0.144733	0.850111	-0.723240	-0.167587	0.534473	-0.729498	-0.177863	0.527819	-0.626512	-0.264996	0.319314	-0.759564	-0.274975	0.280307	-0.755127	-0.215949	0.271388	-0.739486	-0.212750	0.315010	-0.746174	-0.268784	0.173932	-0.757256	-0.262431	0.182909	-0.679165	-0.329436	0.163455	-0.717037	-0.187973	0.078261	-0.758908	-0.158670	0.074338	-0.685032	-0.136213	0.064018	-0.687568	
381	1.9050	-0.263420	1.520911	-0.528826	-0.225178	1.533848	-0.702926	-0.214228	1.513787	-0.351824	-0.138585	1.474032	-0.527573	-0.126956	1.041111	-0.428970	-0.112105	1.042600	-0.642804	-0.177251	1.096802	-0.399975	-0.180469	1.095758	-0.677555	-0.272517	1.080409	-0.489167	-0.265194	1.080788	-0.592523	-0.271650	1.075967	-0.538233	-0.213581	0.839526	-0.359198	-0.203660	0.780829	-0.353704	-0.139798	0.788632	-0.364881	-0.142976	0.849730	-0.373066	-0.197707	0.521345	-0.374411	-0.193496	0.512370	-0.475649	-0.301597	0.329354	-0.377772	-0.315530	0.290436	-0.388004	-0.256131	0.276079	-0.387782	-0.245775	0.314547	-0.381518	-0.322768	0.164362	-0.398254	-0.286441	0.178663	-0.470559	-0.362224	0.171612	-0.452694	-0.242412	0.071879	-0.368556	-0.195320	0.073122	-0.432002	-0.177007	0.066603	-0.422617	-0.217916	0.838371	-0.725452	-0.202894	0.779129	-0.734702	-0.138808	0.789162	-0.732006	-0.144614	0.849132	-0.723163	-0.166767	0.533352	-0.729419	-0.177179	0.526797	-0.626504	-0.265679	0.318781	-0.759559	-0.275970	0.279872	-0.755115	-0.217048	0.270515	-0.739315	-0.213493	0.314104	-0.746035	-0.270396	0.173421	-0.757163	-0.264364	0.182472	-0.679014	-0.331365	0.163059	-0.717381	-0.189693	0.077886	-0.758312	-0.160911	0.073990	-0.684281	-0.138433	0.063738	-0.686658	
382	1.9100	-0.263513	1.519637	-0.529003	-0.225247	1.532216	-0.703240	-0.214353	1.512284	-0.351834	-0.138686	1.472698	-0.527704	-0.127552	1.039987	-0.429026	-0.112651	1.041411	-0.642873	-0.177897	1.095531	-0.400092	-0.181034	1.094304	-0.677700	-0.273156	1.078870	-0.489332	-0.265808	1.079250	-0.592685	-0.272278	1.074405	-0.538392	-0.213252	0.838210	-0.359203	-0.203107	0.779559	-0.353674	-0.139307	0.787560	-0.365046	-0.142727	0.848634	-0.373285	-0.196841	0.519971	-0.374257	-0.192868	0.511114	-0.475496	-0.302088	0.328595	-0.377803	-0.316450	0.289864	-0.388189	-0.257115	0.275085	-0.388065	-0.246433	0.313451	-0.381726	-0.324542	0.163908	-0.398572	-0.288447	0.178220	-0.470986	-0.364238	0.171594	-0.452724	-0.244540	0.070984	-0.369625	-0.197906	0.072173	-0.433400	-0.179613	0.065707	-0.424134	-0.217774	0.836862	-0.725558	-0.202520	0.777668	-0.734717	-0.138487	0.787925	-0.731802	-0.144509	0.847915	-0.723080	-0.165867	0.531997	-0.729357	-0.176480	0.525539	-0.626538	-0.266296	0.318038	-0.759613	-0.276916	0.279241	-0.755165	-0.218112	0.269425	-0.739164	-0.214183	0.312977	-0.745920	-0.272002	0.172712	-0.757105	-0.266321	0.181851	-0.678910	-0.333302	0.162581	-0.717808	-0.191543	0.077161	-0.757625	-0.163369	0.073217	-0.683419	-0.140886	0.063036	-0.685640	
383	1.9150	-0.263581	1.518147	-0.529190	-0.225273	1.530359	-0.703560	-0.214420	1.510545	-0.351848	-0.138784	1.471096	-0.527846	-0.128174	1.038625	-0.429096	-0.113227	1.039993	-0.642948	-0.178529	1.094062	-0.400236	-0.181656	1.092652	-0.677841	-0.273818	1.077085	-0.489482	-0.266454	1.077464	-0.592831	-0.272937	1.072589	-0.538532	-0.212905	0.836646	-0.359216	-0.202530	0.778037	-0.353637	-0.138798	0.786252	-0.365164	-0.142453	0.847297	-0.373466	-0.195855	0.518336	-0.374090	-0.192208	0.509616	-0.475343	-0.302464	0.327650	-0.377714	-0.317283	0.289114	-0.388271	-0.258047	0.273861	-0.388344	-0.247032	0.312116	-0.381932	-0.326350	0.163279	-0.398861	-0.290512	0.177596	-0.471401	-0.366293	0.171479	-0.452737	-0.246842	0.069764	-0.370743	-0.200721	0.070839	-0.434866	-0.182467	0.064414	-0.425680	-0.217615	0.835111	-0.725668	-0.202120	0.775967	-0.734736	-0.138147	0.786457	-0.731618	-0.144399	0.846466	-0.722998	-0.164892	0.530401	-0.729311	-0.175754	0.524044	-0.626585	-0.266849	0.317075	-0.759702	-0.277804	0.278396	-0.755267	-0.219142	0.268128	-0.739032	-0.214820	0.311625	-0.745818	-0.273589	0.171808	-0.757075	-0.268295	0.181050	-0.678850	-0.335237	0.162018	-0.718313	-0.193524	0.076056	-0.756882	-0.166013	0.072077	-0.682469	-0.143544	0.061946	-0.684509	
